<?xml version="1.0" encoding="utf-8"?>
<!-- Generator: Adobe Illustrator 27.5.0, SVG Export Plug-In . SVG Version: 6.00 Build 0)  -->
<svg version="1.1" id="Capa_1" xmlns="http://www.w3.org/2000/svg" xmlns:xlink="http://www.w3.org/1999/xlink" x="0px" y="0px"
	 viewBox="0 0 2122 2122" style="enable-background:new 0 0 2122 2122;" xml:space="preserve">
<g>
	<path style="fill:#FABE6B;" d="M1649.129,1318.141c8.313-165.906-82.793-280.27-205.621-371.285
		c-58.813-44.012-126.273-80.274-196.039-109.813c178.219-66.52,423.148-205.668,348.137-344.074
		c-34.426-63.512-96.281-55.961-160.125-11.336c0.84-6.613,1.219-13.129,1.102-19.539c-0.398-27.809-10.086-53.543-31.836-75.82
		c-8.816-9.043-17.859-15.684-27.027-20.297c-3.238-4.363-8.809-6.77-13.457-5.266c-53.41-15.051-109.887,36.195-153.93,113.555
		c-0.027,0.043-0.047,0.094-0.078,0.141c-20.871-80.391-61.016-136.602-132.762-132.277c-52.043,3.137-77.984,34.898-84.629,81.156
		c-0.027-0.023-0.047-0.047-0.066-0.07c-35.605-39.383-77.906-57.941-127.66-40.516c-42.504,14.887-60.473,44.988-60.559,82.766
		c-0.508,88.937,98.602,220.703,210.211,296.512c-27.676-6.555-54.57-12.195-80.188-16.934
		c-201.32-15.75-450.977,34.496-531.727,299.781c-5.613,18.418-10.074,37.102-13.633,55.91c-0.02,0.148-0.059,0.305-0.086,0.453
		c-1.258,6.68-2.379,13.375-3.383,20.082c-0.039,0.262-0.078,0.512-0.117,0.766c-0.973,6.641-1.832,13.293-2.57,19.949
		c-0.031,0.32-0.07,0.641-0.098,0.957c-0.723,6.633-1.324,13.262-1.805,19.902c-0.016,0.328-0.035,0.66-0.066,0.984
		c-0.457,6.656-0.809,13.313-1.031,19.965c-0.012,0.285-0.02,0.566-0.031,0.848c-0.215,6.715-0.313,13.43-0.281,20.133
		c0,0.18,0.008,0.359,0.008,0.535c0.383,68.281,13.391,135.863,38.09,197.918c0.43,1.066,0.82,2.16,1.258,3.223
		c1.91,4.719,3.945,9.383,5.992,14.035c0.77,1.742,1.512,3.508,2.301,5.246c1.91,4.207,3.926,8.363,5.945,12.504
		c1.039,2.133,2.055,4.266,3.117,6.375c1.938,3.844,3.965,7.637,6,11.418c1.27,2.348,2.523,4.699,3.82,7.023
		c1.988,3.551,4.043,7.051,6.121,10.543c1.469,2.492,2.953,4.98,4.461,7.438c2.047,3.301,4.141,6.566,6.258,9.809
		c1.676,2.574,3.359,5.129,5.074,7.672c2.105,3.078,4.238,6.133,6.414,9.164c1.859,2.605,3.75,5.199,5.672,7.762
		c2.152,2.887,4.344,5.758,6.574,8.594c2.047,2.613,4.133,5.203,6.238,7.766c2.223,2.707,4.461,5.398,6.75,8.059
		c2.234,2.598,4.512,5.148,6.805,7.695c2.277,2.535,4.578,5.063,6.918,7.543c2.414,2.563,4.891,5.074,7.367,7.57
		c2.348,2.371,4.684,4.738,7.082,7.047c2.602,2.512,5.281,4.969,7.953,7.414c2.387,2.191,4.762,4.395,7.199,6.535
		c2.816,2.465,5.711,4.848,8.586,7.242c2.426,2.008,4.82,4.039,7.289,5.996c3.039,2.414,6.176,4.738,9.293,7.074
		c2.418,1.813,4.805,3.66,7.27,5.426c3.352,2.398,6.801,4.684,10.23,6.988c2.352,1.57,4.648,3.195,7.027,4.723
		c3.887,2.504,7.891,4.863,11.879,7.242c2.027,1.207,4.004,2.48,6.051,3.652c6.098,3.496,12.297,6.848,18.609,10.047
		c3.559,1.805,7.231,3.547,10.984,5.262c1.207,0.551,2.453,1.082,3.68,1.621c2.606,1.156,5.227,2.297,7.914,3.406
		c1.48,0.613,2.992,1.219,4.5,1.824c2.535,1.008,5.109,2.008,7.719,2.98c1.598,0.598,3.207,1.199,4.832,1.789
		c2.691,0.969,5.43,1.914,8.195,2.855c1.102,0.375,2.164,0.773,3.285,1.141c-23.406,31.418-44.891,64.227-69.156,95
		c-9.637,12.219,7.516,29.621,17.258,17.266c26.816-34.008,50.25-70.488,76.598-104.816c1.113,0.301,2.195,0.613,3.316,0.914
		c2.102,0.566,4.258,1.105,6.391,1.656c2.523,0.652,5.039,1.297,7.602,1.926c2.484,0.602,5.008,1.191,7.531,1.777
		c2.211,0.516,4.434,1.023,6.676,1.512c1.5,0.328,2.949,0.688,4.461,1.012c0.039,0.012,0.09,0.02,0.137,0.023
		c1.012,0.219,2.074,0.406,3.098,0.621c4.512,0.938,9.082,1.852,13.703,2.723c0.711,0.133,1.402,0.289,2.113,0.418
		c0.203,0.039,0.398,0.074,0.606,0.109c0.32,0.063,0.652,0.121,0.973,0.18c0.914,0.164,1.832,0.332,2.746,0.496
		c0.762,0.133,1.543,0.254,2.301,0.387c3.957,0.699,7.934,1.387,11.957,2.035c0.645,0.105,1.266,0.223,1.918,0.324
		c1.395,0.227,2.777,0.453,4.18,0.668c0.703,0.109,1.426,0.199,2.125,0.309c4.66,0.707,9.363,1.379,14.121,2.023
		c1.316,0.18,2.59,0.395,3.906,0.563c0.031,0.004,0.051,0.012,0.07,0.012c1.637,0.215,3.332,0.383,4.977,0.59
		c4.484,0.563,8.984,1.105,13.535,1.617c2.379,0.262,4.754,0.52,7.152,0.77c1.305,0.137,2.582,0.293,3.898,0.418
		c6.82,20.457,13.633,40.922,20.453,61.379c4.957,14.855,28.531,8.488,23.539-6.488c-5.836-17.512-11.672-35.023-17.508-52.531
		c2.883,0.215,5.848,0.359,8.75,0.555c1.481,0.102,2.934,0.234,4.422,0.332c0.059,0,0.117,0.004,0.176,0.008
		c1.367,0.09,2.758,0.137,4.133,0.215c5.359,0.32,10.738,0.609,16.156,0.852c0.934,0.047,1.852,0.109,2.785,0.152
		c0.469,0.02,0.938,0.043,1.402,0.063c1.348,0.055,2.719,0.078,4.074,0.133c5.633,0.219,11.285,0.41,16.977,0.551
		c0.504,0.016,1.012,0.039,1.527,0.055c0.469,0.008,0.938,0.031,1.414,0.047c0,0,0-0.008,0-0.016
		c0.867,0.02,1.754,0.012,2.621,0.031c8.398,0.168,16.856,0.262,25.363,0.266c1.754,0,3.5,0,5.254,0
		c8.406-0.027,16.856-0.137,25.352-0.328c1.668-0.035,3.332-0.059,5.012-0.109c9.207-0.238,18.445-0.57,27.731-0.992
		c0.836-0.039,1.676-0.07,2.523-0.109c13.602-0.656,27.266-1.539,40.953-2.605c3.566-0.273,7.125-0.531,10.691-0.832
		c0.953-0.086,1.91-0.172,2.863-0.254c0.254-0.02,0.508-0.051,0.762-0.07c3.887-0.344,7.773-0.719,11.672-1.102
		c2.418-0.23,4.844-0.438,7.262-0.68c0.125-0.016,0.25-0.023,0.387-0.039c2-0.207,3.996-0.449,5.992-0.66
		c3.813-0.402,7.621-0.816,11.43-1.254c0.906-0.102,1.813-0.191,2.711-0.297c1.031-0.125,2.066-0.246,3.098-0.371
		c2.68-0.316,5.352-0.684,8.031-1.016c3.934-0.496,7.871-0.965,11.809-1.496c1.238-0.164,2.457-0.348,3.691-0.52
		c-1.402,23.59-4.949,46.504-13.66,69.504c-5.582,14.75,18.016,21.063,23.543,6.492c9.918-26.188,13.574-52.492,14.809-79.59
		c1.23-0.191,2.449-0.41,3.676-0.602c3.723-0.586,7.453-1.152,11.168-1.777c0.133-0.02,0.262-0.039,0.387-0.063
		c1.406-0.238,2.797-0.5,4.199-0.742c3.344-0.57,6.676-1.164,10.008-1.758c1.707-0.313,3.422-0.594,5.125-0.906
		c0.977-0.176,1.961-0.352,2.934-0.535c2.563-0.473,5.098-0.984,7.648-1.48c2.984-0.57,5.977-1.137,8.945-1.727
		c0.867-0.176,1.734-0.332,2.602-0.508c0.293-0.059,0.598-0.109,0.887-0.176v-0.004c-0.008-0.016-0.02-0.027-0.02-0.039v-0.004
		c0,0.016,0.012,0.027,0.02,0.039c5.906-1.199,11.781-2.445,17.648-3.727c2.289-0.496,4.559-1.008,6.84-1.52
		c6.949-1.566,13.867-3.164,20.734-4.828c1.93-0.48,3.84-0.973,5.762-1.449c5.992-1.496,11.953-3.035,17.879-4.617
		c1.453-0.391,2.941-0.738,4.395-1.137c13.379,26.938,27.984,53.273,41.57,80.133c7.113,14.043,28.168,1.684,21.074-12.324
		c-12.637-24.977-26.375-49.469-39.004-74.492c135.48-40.254,248.348-104.809,295.637-194.672
		c13.961-23.246,23.832-47.5,28.48-72.148c22.813,2.301,96.691,39.918,99.945-1.012
		C1743.445,1355.871,1670.547,1333.777,1649.129,1318.141z M1130.723,761.688c0.012,5.461,0.188,10.824,0.438,16.137
		c-0.574-0.637-1.148-1.277-1.734-1.914c-1.305-6.656-2.648-13.375-4.07-20.199C1127.129,757.734,1128.93,759.711,1130.723,761.688z
		"/>
	<g>
		<path style="fill:#C2DEF0;" d="M1170.801,807.879c25.492,8.953,50.98,18.715,76.176,29.367
			c178.258-66.438,423.758-205.73,348.672-344.277c-34.422-63.512-96.281-55.961-160.125-11.336
			c4.469-35.141-4.078-67.625-30.727-94.926c-63.895-65.461-139-9.344-194.414,87.992c-20.848-80.551-61.016-136.898-132.848-132.57
			c-52.18,3.145-78.125,35.063-84.691,81.52c-35.605-39.383-77.902-57.941-127.656-40.516
			c-142.871,50.031-8.59,271.902,150.598,379.496c49.867,11.844,102.316,26.758,154.785,45.172 M1125.402,755.711
			c1.773,2.023,3.57,4,5.371,5.977c0.012,8.883,0.363,17.566,1.004,26.055C1129.797,777.297,1127.672,766.602,1125.402,755.711z"/>
		<path style="fill:#B0BFDF;" d="M1175.16,803.977c16.859-12.684,34.129-26.371,51.379-40.813l10.832-9.164
			c95.434-81.769,187.051-185.508,198.152-272.801c4.469-35.141-4.078-67.625-30.727-94.926
			c-63.895-65.461-139-9.344-194.414,87.992c-46.969,82.5-79.785,194.602-79.609,287.422c0.012,8.883,0.363,17.566,1.004,26.055
			c-1.98-10.445-4.105-21.141-6.375-32.031c-24.836-119.043-67.512-260.547-132.559-332.496
			c-35.605-39.383-77.902-57.941-127.656-40.516c-142.871,50.031-8.59,271.902,150.598,379.496
			c49.867,11.844,102.316,26.758,154.785,45.172C1172.109,806.219,1173.617,805.144,1175.16,803.977z"/>
		<path style="fill:#4D2402;" d="M855.227,1754.84c4.957,14.855,28.531,8.488,23.543-6.488
			c-5.836-17.512-11.672-35.023-17.512-52.531c-8.945-0.68-17.758-1.48-26.488-2.359
			C841.59,1713.918,848.406,1734.383,855.227,1754.84z"/>
		<path style="fill:#4D2402;" d="M1335.379,1735.309c7.109,14.043,28.164,1.684,21.078-12.324
			c-12.641-24.977-26.383-49.469-39.012-74.492c-7.801,2.32-15.699,4.531-23.641,6.684
			C1307.188,1682.113,1321.789,1708.449,1335.379,1735.309z"/>
		<g>
			<path style="fill:#4D2402;" d="M958.121,543.199c22.184-19.883,39.957-44.844,51.215-72.809
				c5.879-14.613-17.738-20.898-23.543-6.488c-8.75,21.734-22.902,41.859-40.461,58.437
				c-25.977-42.863-50.914-86.531-75.641-130.559c-7.703-13.723-28.793-1.422-21.074,12.32
				c25.359,45.16,50.98,89.926,77.703,133.852c-20.141,14.219-43.199,23.984-67.164,27.09c-15.387,1.992-15.582,26.43,0,24.41
				c28.973-3.754,56.145-14.773,79.723-31.066c53.59,86.328,112.07,169.051,182.18,244.551
				c10.727,11.555,27.949-5.746,17.254-17.262C1068.832,710.848,1011.078,628.797,958.121,543.199z"/>
			<path style="fill:#4D2402;" d="M1372.008,543.461c-23.539-6.199-43.703-14.855-60.941-26.668
				c24.355-45.141,47.809-90.734,68.234-137.859c6.191-14.285-14.832-26.73-21.078-12.32
				c-19.922,45.965-42.633,90.512-66.258,134.602c-15.25-14.785-27.57-33.203-37.262-56.188
				c-6.023-14.273-29.652-8.008-23.543,6.488c12.516,29.68,28.578,53.195,48.98,71.641
				c-45.652,84.043-93.559,166.953-130.766,255.32c-6.105,14.5,17.527,20.766,23.539,6.488
				c35.957-85.387,82.191-165.57,126.516-246.707c18.789,12.605,40.637,22.039,66.086,28.738
				C1380.758,571.008,1387.219,547.465,1372.008,543.461z"/>
		</g>
		<path style="fill:#8D5433;" d="M1649.18,1318.141c8.551-170.766-88.211-286.926-216.48-379.227
			c-59.965,131.344-86.953,287.375-66.285,433.281c11.406,80.508,37.27,157.949,80.234,226.426c0,0.004,0,0.012,0,0.012
			c0.34-0.168,0.66-0.344,0.992-0.508c69.969-34.844,130.105-85.965,164.934-143.434c14.246-23.508,24.281-48.066,28.996-73.02
			c22.809,2.301,96.688,39.918,99.945-1.012C1743.488,1355.871,1670.59,1333.777,1649.18,1318.141z"/>
		<path style="fill:#F6A564;" d="M1219.926,1431.125c-27.543,5.34-55.277,9.461-83.121,12.75
			c16.75,79.551,45.523,156.266,83.746,228.578c82.199-16.664,160.246-41.207,226.098-73.832
			c-42.965-68.477-68.828-145.918-80.234-226.426C1321.824,1402.848,1273.035,1420.84,1219.926,1431.125z"/>
		<path style="fill:#F6A564;" d="M886,1459.875c-18.797,0.855-37.59,1.992-56.395,2.676c14.105,52.406,31.73,103.77,53.02,153.313
			c12.164,28.301,25.711,55.941,40.445,82.902c40.617,0.922,82.621-0.09,124.992-3.082
			c-31.418-76.945-53.207-157.516-64.394-240.207C951.121,1457.051,918.555,1458.395,886,1459.875z"/>
		<path style="fill:#8D5433;" d="M829.605,1462.551c-27.461-102.051-41.309-208.156-41.02-313.164
			c0.395-142.477,34.523-297.816,133.5-405.172c-51.387-3.269-105.531-2.141-159,5.824
			c-48.324,65.543-76.793,145.461-94.074,224.375c-16.043,73.262-23.84,148.332-24.711,223.305
			c-0.891,77.105,0.731,154.172,12.656,230.527c0.863,5.535,1.781,11.063,2.75,16.582c14.469,82.629,40.473,162.988,81.547,234.348
			c0.047,0.012,0.094,0.02,0.137,0.023c6.199,1.332,12.523,2.57,18.918,3.762c1.434,0.27,2.887,0.523,4.328,0.785
			c5.324,0.961,10.715,1.875,16.172,2.746c1.394,0.227,2.781,0.453,4.184,0.668c6.637,1.027,13.34,2.004,20.152,2.895
			c0.024,0.004,0.047,0.012,0.066,0.012c14.66,1.922,29.715,3.531,45.086,4.84c0.492,0.047,0.984,0.086,1.477,0.125
			c7.484,0.629,15.031,1.188,22.66,1.676c0.055,0,0.113,0.004,0.172,0.008c7.621,0.477,15.324,0.879,23.078,1.219
			c0.465,0.02,0.93,0.043,1.398,0.063c7.469,0.316,15,0.555,22.574,0.738c0.473,0.008,0.941,0.031,1.418,0.047
			c0,0-0.004-0.008-0.004-0.016c-14.734-26.961-28.281-54.602-40.445-82.902C861.336,1566.32,843.711,1514.957,829.605,1462.551z"/>
		<path style="fill:#8D5433;" d="M560.992,1109.965c82.262-24.879,41.695-122.723-22.707-108.043
			C442.711,1024.961,478.641,1134.875,560.992,1109.965z"/>
		<path style="fill:#F6A564;" d="M659.707,1444.828c-6.246-1.852-12.449-3.848-18.586-6.051
			c-78.16-28.027-138.504-83.934-177.754-156.59c-33.93-62.809-54.391-131.918-69.832-201.75
			c-50.207,218.707,39.352,462.117,235.941,561.613c15.297,7.738,32.422,14.699,51.102,20.879
			c4.32-5.793,8.684-11.563,13.164-17.246c9.746-12.355,26.894,5.051,17.258,17.258c-1.934,2.457-3.805,4.945-5.707,7.422
			c11.543,3.191,23.516,6.148,35.961,8.813C700.18,1607.816,674.176,1527.457,659.707,1444.828z"/>
		<path style="fill:#8D5433;" d="M1136.805,1443.875c-11.566-54.965-17.453-111.277-16.527-168.477
			c2.508-155.047,48.672-304.371,113.879-443.914c-39.145-16.035-78.887-29.996-118.121-42.059
			c-12.117,22.875-23.625,46.07-34.336,69.645c-71.992,158.477-113.129,332.441-105.934,507.105
			c1.234,29.992,3.914,59.781,7.902,89.301c11.187,82.691,32.976,163.262,64.394,240.207c0,0.004,0,0.004,0,0.004
			c0.172-0.008,0.344-0.023,0.512-0.039c6.656-0.473,13.324-1,19.996-1.563c0.953-0.086,1.91-0.172,2.871-0.254
			c6.555-0.574,13.125-1.184,19.691-1.852c0.125-0.016,0.254-0.023,0.387-0.039c6.711-0.688,13.426-1.434,20.133-2.211
			c1.035-0.125,2.063-0.246,3.094-0.371c7.855-0.938,15.699-1.961,23.535-3.031c0.621-10.52,0.867-21.156,0.871-32.016
			c0.008-15.738,24.418-15.738,24.41,0c-0.008,9.586-0.156,19.035-0.582,28.402c4.949-0.766,9.902-1.531,14.836-2.359
			c0.133-0.02,0.262-0.039,0.391-0.063c6.465-1.086,12.906-2.227,19.332-3.406c0.973-0.176,1.957-0.352,2.934-0.535
			c6.422-1.191,12.82-2.426,19.195-3.715c0.293-0.059,0.594-0.109,0.887-0.176l-0.004-0.004
			C1182.328,1600.141,1153.555,1523.426,1136.805,1443.875z"/>
		<path style="fill:#4D2402;" d="M693.742,1645.684c-4.481,5.684-8.844,11.453-13.164,17.246
			c-23.398,31.418-44.883,64.227-69.148,95c-9.637,12.219,7.512,29.621,17.258,17.266c26.82-34.016,50.25-70.496,76.606-104.832
			c1.902-2.477,3.773-4.965,5.707-7.422C720.637,1650.734,703.488,1633.328,693.742,1645.684z"/>
		<path style="fill:#4D2402;" d="M1139.152,1654.313c-0.004,10.859-0.25,21.496-0.871,32.016
			c-1.398,23.59-4.945,46.504-13.664,69.504c-5.582,14.75,18.023,21.063,23.543,6.492c9.926-26.195,13.578-52.508,14.82-79.609
			c0.426-9.367,0.574-18.816,0.582-28.402C1163.57,1638.574,1139.16,1638.574,1139.152,1654.313z"/>
	</g>
</g>
</svg>
