<svg version="1.1" id="Layer_1" xmlns="http://www.w3.org/2000/svg" xmlns:xlink="http://www.w3.org/1999/xlink" x="0px" y="0px"
	 width="100%" viewBox="0 0 512 512" enable-background="new 0 0 512 512" xml:space="preserve">
<path fill="#010100" opacity="1.000000" stroke="none" 
	d="
M1.000000,182.000000 
	C1.000000,121.333336 1.000000,61.166668 1.000000,1.000000 
	C171.666672,1.000000 342.333344,1.000000 513.000000,1.000000 
	C513.000000,171.666672 513.000000,342.333344 513.000000,513.000000 
	C342.333344,513.000000 171.666672,513.000000 1.000000,513.000000 
	C1.000000,402.833344 1.000000,292.666656 1.000000,182.000000 
M59.784172,391.323212 
	C55.583290,387.535736 51.091763,384.355804 43.894039,383.875092 
	C43.894039,390.867126 43.898586,397.448334 43.892414,404.029510 
	C43.888420,408.287750 46.093884,410.848907 50.075382,411.953339 
	C52.305756,412.571991 54.583431,413.020142 57.502258,413.878265 
	C61.554119,414.472412 65.605980,415.066559 70.106247,415.726440 
	C70.617058,405.694885 66.776245,398.218079 59.784172,391.323212 
M69.283516,357.222137 
	C66.039719,356.641907 62.813225,355.883972 59.543926,355.565613 
	C58.165615,355.431396 55.994476,355.761841 55.392334,356.676605 
	C52.917625,360.436096 50.907650,364.501495 48.839893,368.249268 
	C54.377613,370.787750 59.142216,372.971832 64.306244,375.683624 
	C77.337112,385.456696 85.093384,398.163483 85.486015,415.004303 
	C87.484230,414.614655 88.942062,414.362976 90.384964,414.043762 
	C100.541008,411.796722 100.384193,411.781494 101.094063,401.544922 
	C101.494728,395.767181 102.630760,390.186157 100.106293,384.429901 
	C95.545937,374.031494 88.937492,365.533112 79.004868,359.979156 
	C76.397240,358.521088 73.094521,358.306091 69.283516,357.222137 
M179.824310,314.328491 
	C174.155304,301.081299 163.843384,294.338409 149.964554,294.803436 
	C137.890656,295.207977 127.663330,302.847168 123.056351,315.274841 
	C118.974503,328.615601 123.504402,342.139923 134.571793,349.654938 
	C145.415070,357.017761 159.795959,356.581573 170.029572,348.579620 
	C180.315674,340.536591 184.276550,327.020905 179.824310,314.328491 
M106.665146,321.238159 
	C106.781975,320.078247 106.620956,318.797333 107.064148,317.779510 
	C108.894257,313.576569 106.899368,311.249359 103.334076,309.591064 
	C96.581413,306.450317 90.040421,302.632751 82.997375,300.406342 
	C77.079376,298.535583 70.950157,298.049530 71.142929,289.799805 
	C63.852684,290.959717 57.405712,291.985443 51.000946,293.004456 
	C51.815472,300.304474 51.047337,301.568542 45.254009,304.939484 
	C41.814606,306.940735 38.397942,309.063690 35.293655,311.536865 
	C31.611526,314.470398 31.051483,318.611298 34.055805,322.109772 
	C46.124527,336.163727 61.131546,343.760895 80.947151,342.432617 
	C90.268677,341.775848 99.158646,339.528259 107.333038,335.689026 
	C106.968140,330.792480 106.636429,326.341248 106.665146,321.238159 
M339.395538,249.505234 
	C335.600220,249.830017 331.737030,249.807266 328.020081,250.533310 
	C290.358673,257.889801 267.167297,291.172150 273.049347,329.249969 
	C278.096100,361.920837 310.134735,387.322266 343.873932,384.877350 
	C348.646332,384.516357 351.931946,386.404358 353.226501,391.912994 
	C352.353180,397.652771 350.238831,400.060242 344.567322,399.809601 
	C336.043091,399.432922 327.551483,398.316528 318.464539,397.138885 
	C299.458344,391.937439 284.173920,381.374878 272.536865,365.456909 
	C271.565643,364.128387 269.842621,362.483124 268.451233,362.466553 
	C258.297821,362.345642 248.075729,361.934265 237.998444,362.899811 
	C222.942154,364.342377 212.016678,377.136780 211.880859,392.123657 
	C211.743515,407.281891 222.230209,419.766632 237.159439,422.216095 
	C238.145325,422.377869 239.133667,422.661346 240.120590,422.660156 
	C268.439484,422.626007 296.758331,422.562683 325.983246,422.708923 
	C362.941284,422.723022 399.899506,422.813965 436.857239,422.716919 
	C453.883240,422.672180 467.112366,410.174561 467.878998,393.837158 
	C468.633240,377.763824 456.619598,363.949432 439.927460,362.633820 
	C430.494476,361.890350 420.960754,362.270935 411.479095,362.468018 
	C410.070221,362.497284 408.556580,364.157990 407.332642,365.318390 
	C400.009827,372.260773 393.079254,379.660004 385.373352,386.140564 
	C379.870636,390.768311 377.184998,389.989136 372.088654,383.980682 
	C370.844818,378.831879 373.752869,376.080139 377.637512,373.439392 
	C409.362671,351.873047 417.393616,309.410736 395.240082,278.418793 
	C381.839966,259.672607 363.542908,249.484009 339.395538,249.505234 
M357.938934,497.983826 
	C374.908508,497.976715 391.882874,498.216766 408.846313,497.890656 
	C424.774719,497.584473 437.655884,484.017395 437.804810,468.066681 
	C437.953949,452.096588 425.314331,438.207764 409.281372,437.975372 
	C383.175262,437.596985 357.058655,437.940582 330.036621,437.768311 
	C310.228668,437.796844 290.414734,437.536407 270.614594,437.944366 
	C254.448730,438.277435 241.963730,451.719147 241.969421,467.862518 
	C241.975082,483.926758 254.639389,497.688416 270.634186,497.861725 
	C299.423889,498.173737 328.220184,497.876862 357.938934,497.983826 
M329.909027,196.855713 
	C340.662384,196.862640 351.416809,196.962418 362.168579,196.836029 
	C367.292389,196.775803 370.292999,198.966827 371.038879,204.748215 
	C370.302246,210.068085 366.826324,211.853790 361.923737,211.876312 
	C348.978760,211.935776 336.033936,212.022537 322.151001,211.907501 
	C294.850616,211.913986 267.547791,211.702637 240.250824,212.010925 
	C224.558289,212.188141 211.972458,225.782867 211.887573,241.698700 
	C211.801422,257.854279 224.431000,271.465271 240.273468,271.948456 
	C249.420944,272.227417 258.583954,272.082306 267.737946,271.966705 
	C269.033875,271.950378 270.875458,271.398376 271.525085,270.450470 
	C283.000458,253.705856 298.841858,243.117249 318.805939,237.076645 
	C355.286957,229.439621 385.096741,239.819458 407.739288,269.840515 
	C408.632233,271.024414 410.682190,271.901703 412.217712,271.940247 
	C420.375031,272.145111 428.540344,272.065430 436.702637,272.030182 
	C454.406586,271.953766 467.950928,258.842621 467.906342,241.861588 
	C467.861694,224.862564 454.403229,211.961639 436.557434,211.884415 
	C424.730438,211.833221 412.902954,211.897171 401.075836,211.863342 
	C394.492401,211.844498 392.597260,210.337006 391.131226,203.318100 
	C392.310303,198.488251 395.491089,196.589203 400.315460,196.848785 
	C402.966614,196.991455 405.638214,196.944107 408.292236,196.813126 
	C424.837799,195.996552 437.578186,183.083099 437.812378,166.947571 
	C438.043243,151.039322 425.883179,137.400040 409.405914,136.806808 
	C390.663910,136.132050 371.875488,136.746460 352.202026,136.487564 
	C340.043030,136.464920 327.884003,136.406708 315.725098,136.428635 
	C300.569489,136.455978 285.388489,136.022675 270.265381,136.755890 
	C253.674515,137.560272 241.827423,150.801453 241.963333,167.032562 
	C242.097137,183.014542 254.626297,196.316040 271.036926,196.705566 
	C290.341003,197.163788 309.666046,196.737381 329.909027,196.855713 
M253.781586,69.123848 
	C272.744354,71.401512 291.652740,74.764381 310.681854,75.718735 
	C344.645996,77.422119 378.573242,75.793083 412.190216,70.007332 
	C439.004395,65.392410 465.147034,58.536564 489.686493,46.464077 
	C497.004395,42.863945 499.804016,35.835102 496.934845,29.085068 
	C494.083771,22.377607 486.897247,19.365770 479.396210,22.233913 
	C446.182037,34.933960 411.674011,41.503643 376.347717,44.224136 
	C334.717224,47.430119 293.210114,47.298195 251.372971,39.020805 
	C240.689804,35.884171 229.856735,33.178272 219.353912,29.523396 
	C195.726334,21.301243 171.416290,16.695137 146.502899,16.335854 
	C108.047096,15.781275 69.577873,15.923161 31.118195,16.238724 
	C27.306490,16.269999 22.831827,18.801109 19.884157,21.502447 
	C15.354338,25.653717 14.717475,31.488470 17.370535,37.169643 
	C20.164272,43.152058 25.043293,46.116631 31.724730,46.112911 
	C64.859985,46.094463 97.995590,46.016594 131.130417,46.139050 
	C157.828491,46.237713 184.314713,48.229698 210.068726,56.027168 
	C224.375137,60.358685 238.715302,64.578674 253.781586,69.123848 
M487.494873,340.031586 
	C497.136658,330.978302 500.545715,320.102081 496.203735,307.468323 
	C492.011200,295.269470 482.956116,287.960815 470.271332,287.356720 
	C452.693726,286.519592 435.046417,287.146423 416.980988,287.146423 
	C424.489227,307.123352 424.372986,326.991272 417.311188,346.936340 
	C436.225830,346.936340 454.676880,347.361023 473.083282,346.642578 
	C477.781555,346.459198 482.338470,342.654388 487.494873,340.031586 
M225.500153,347.334015 
	C237.619095,347.334015 249.738037,347.334015 262.623657,347.334015 
	C255.144791,327.018219 255.259506,307.166901 262.578461,287.143066 
	C244.503052,287.143066 227.037308,286.831635 209.590820,287.275818 
	C200.998932,287.494537 193.761765,291.481750 188.427078,298.503448 
	C195.929596,310.083496 198.577087,322.237396 195.333679,335.443176 
	C193.658646,342.263245 193.457169,343.227081 200.409180,344.828827 
	C208.217484,346.627899 216.451553,346.578979 225.500153,347.334015 
M116.922081,395.519012 
	C113.756073,411.290222 117.557152,425.480316 126.707687,438.436035 
	C130.526962,443.843567 134.535568,444.302063 139.668564,440.016907 
	C161.799103,421.541809 164.862549,397.526581 154.451996,372.504700 
	C154.000320,371.419128 152.599213,370.249573 151.454193,370.010376 
	C144.715500,368.602600 137.921539,367.459412 130.676773,366.141754 
	C125.161568,372.306671 120.104790,382.665588 116.922081,395.519012 
M346.497314,121.335968 
	C348.990723,121.335899 351.484589,121.365585 353.977509,121.330498 
	C363.635986,121.194572 362.210205,122.577621 362.309265,112.758591 
	C362.382263,105.527084 362.323608,98.294243 362.323608,91.371231 
	C346.735168,91.371231 332.055542,91.371231 317.425323,91.371231 
	C317.425323,101.551956 317.425323,111.133049 317.425323,121.336487 
	C326.979065,121.336487 336.238831,121.336487 346.497314,121.335968 
M104.278770,362.264343 
	C106.169647,364.831879 108.060524,367.399414 110.052094,370.103699 
	C113.189529,365.045715 116.029846,360.466736 119.301636,355.192169 
	C116.742714,353.416199 114.154579,350.163910 112.034477,350.444794 
	C107.290588,351.073181 102.779770,353.460999 97.981789,355.202026 
	C100.087143,357.534607 101.966705,359.617035 104.278770,362.264343 
z"/>
<path fill="#D77B40" opacity="1.000000" stroke="none" 
	d="
M252.023819,39.260471 
	C293.210114,47.298195 334.717224,47.430119 376.347717,44.224136 
	C411.674011,41.503643 446.182037,34.933960 479.396210,22.233913 
	C486.897247,19.365770 494.083771,22.377607 496.934845,29.085068 
	C499.804016,35.835102 497.004395,42.863945 489.686493,46.464077 
	C465.147034,58.536564 439.004395,65.392410 412.190216,70.007332 
	C378.573242,75.793083 344.645996,77.422119 310.681854,75.718735 
	C291.652740,74.764381 272.744354,71.401512 253.340393,68.619263 
	C249.158966,58.601231 248.848465,48.983727 252.023819,39.260471 
z"/>
<path fill="#AE602D" opacity="1.000000" stroke="none" 
	d="
M251.698395,39.140640 
	C248.848465,48.983727 249.158966,58.601231 252.969727,68.481804 
	C238.715302,64.578674 224.375137,60.358685 210.068726,56.027168 
	C184.314713,48.229698 157.828491,46.237713 131.130417,46.139050 
	C97.995590,46.016594 64.859985,46.094463 31.724730,46.112911 
	C25.043293,46.116631 20.164272,43.152058 17.370535,37.169643 
	C14.717475,31.488470 15.354338,25.653717 19.884157,21.502447 
	C22.831827,18.801109 27.306490,16.269999 31.118195,16.238724 
	C69.577873,15.923161 108.047096,15.781275 146.502899,16.335854 
	C171.416290,16.695137 195.726334,21.301243 219.353912,29.523396 
	C229.856735,33.178272 240.689804,35.884171 251.698395,39.140640 
z"/>
<path fill="#F8D070" opacity="1.000000" stroke="none" 
	d="
M372.121216,384.812561 
	C377.184998,389.989136 379.870636,390.768311 385.373352,386.140564 
	C393.079254,379.660004 400.009827,372.260773 407.332642,365.318390 
	C408.556580,364.157990 410.070221,362.497284 411.479095,362.468018 
	C420.960754,362.270935 430.494476,361.890350 439.927460,362.633820 
	C456.619598,363.949432 468.633240,377.763824 467.878998,393.837158 
	C467.112366,410.174561 453.883240,422.672180 436.857239,422.716919 
	C399.899506,422.813965 362.941284,422.723022 325.500397,422.241272 
	C323.027039,413.687286 321.036530,405.600983 319.046021,397.514648 
	C327.551483,398.316528 336.043091,399.432922 344.567322,399.809601 
	C350.238831,400.060242 352.353180,397.652771 353.669556,391.507080 
	C360.115509,389.004944 366.118378,386.908752 372.121216,384.812561 
z"/>
<path fill="#F8D070" opacity="1.000000" stroke="none" 
	d="
M390.911163,204.016754 
	C392.597260,210.337006 394.492401,211.844498 401.075836,211.863342 
	C412.902954,211.897171 424.730438,211.833221 436.557434,211.884415 
	C454.403229,211.961639 467.861694,224.862564 467.906342,241.861588 
	C467.950928,258.842621 454.406586,271.953766 436.702637,272.030182 
	C428.540344,272.065430 420.375031,272.145111 412.217712,271.940247 
	C410.682190,271.901703 408.632233,271.024414 407.739288,269.840515 
	C385.096741,239.819458 355.286957,229.439621 318.393707,236.646973 
	C318.232635,234.597855 318.398315,232.959595 318.749969,231.362259 
	C320.165100,224.934113 321.637695,218.518616 323.089050,212.098434 
	C336.033936,212.022537 348.978760,211.935776 361.923737,211.876312 
	C366.826324,211.853790 370.302246,210.068085 371.573975,204.378510 
	C378.376404,204.011444 384.643799,204.014099 390.911163,204.016754 
z"/>
<path fill="#FBE2A0" opacity="1.000000" stroke="none" 
	d="
M391.021179,203.667419 
	C384.643799,204.014099 378.376404,204.011444 371.653442,204.008759 
	C370.292999,198.966827 367.292389,196.775803 362.168579,196.836029 
	C351.416809,196.962418 340.662384,196.862640 329.462158,196.392578 
	C332.196350,186.907089 335.015594,177.735855 338.650757,168.900314 
	C343.113312,158.053802 348.257660,147.487793 353.107239,136.800507 
	C371.875488,136.746460 390.663910,136.132050 409.405914,136.806808 
	C425.883179,137.400040 438.043243,151.039322 437.812378,166.947571 
	C437.578186,183.083099 424.837799,195.996552 408.292236,196.813126 
	C405.638214,196.944107 402.966614,196.991455 400.315460,196.848785 
	C395.491089,196.589203 392.310303,198.488251 391.021179,203.667419 
z"/>
<path fill="#F9D171" opacity="1.000000" stroke="none" 
	d="
M357.013733,497.834351 
	C328.220184,497.876862 299.423889,498.173737 270.634186,497.861725 
	C254.639389,497.688416 241.975082,483.926758 241.969421,467.862518 
	C241.963730,451.719147 254.448730,438.277435 270.614594,437.944366 
	C290.414734,437.536407 310.228668,437.796844 330.513641,438.264252 
	C331.958984,441.751312 332.648529,444.869202 333.941467,447.712708 
	C341.554321,464.455322 349.307709,481.134094 357.013733,497.834351 
z"/>
<path fill="#F5CE70" opacity="1.000000" stroke="none" 
	d="
M352.654633,136.644043 
	C348.257660,147.487793 343.113312,158.053802 338.650757,168.900314 
	C335.015594,177.735855 332.196350,186.907089 328.998627,196.312027 
	C309.666046,196.737381 290.341003,197.163788 271.036926,196.705566 
	C254.626297,196.316040 242.097137,183.014542 241.963333,167.032562 
	C241.827423,150.801453 253.674515,137.560272 270.265381,136.755890 
	C285.388489,136.022675 300.569489,136.455978 315.725098,136.428635 
	C327.884003,136.406708 340.043030,136.464920 352.654633,136.644043 
z"/>
<path fill="#FBE2A0" opacity="1.000000" stroke="none" 
	d="
M357.476318,497.909088 
	C349.307709,481.134094 341.554321,464.455322 333.941467,447.712708 
	C332.648529,444.869202 331.958984,441.751312 330.968567,438.369873 
	C357.058655,437.940582 383.175262,437.596985 409.281372,437.975372 
	C425.314331,438.207764 437.953949,452.096588 437.804810,468.066681 
	C437.655884,484.017395 424.774719,497.584473 408.846313,497.890656 
	C391.882874,498.216766 374.908508,497.976715 357.476318,497.909088 
z"/>
<path fill="#EFBF3B" opacity="1.000000" stroke="none" 
	d="
M318.755280,397.326782 
	C321.036530,405.600983 323.027039,413.687286 325.047363,422.138855 
	C296.758331,422.562683 268.439484,422.626007 240.120590,422.660156 
	C239.133667,422.661346 238.145325,422.377869 237.159439,422.216095 
	C222.230209,419.766632 211.743515,407.281891 211.880859,392.123657 
	C212.016678,377.136780 222.942154,364.342377 237.998444,362.899811 
	C248.075729,361.934265 258.297821,362.345642 268.451233,362.466553 
	C269.842621,362.483124 271.565643,364.128387 272.536865,365.456909 
	C284.173920,381.374878 299.458344,391.937439 318.755280,397.326782 
z"/>
<path fill="#F2C13B" opacity="1.000000" stroke="none" 
	d="
M322.620026,212.002960 
	C321.637695,218.518616 320.165100,224.934113 318.749969,231.362259 
	C318.398315,232.959595 318.232635,234.597855 317.977234,236.642639 
	C298.841858,243.117249 283.000458,253.705856 271.525085,270.450470 
	C270.875458,271.398376 269.033875,271.950378 267.737946,271.966705 
	C258.583954,272.082306 249.420944,272.227417 240.273468,271.948456 
	C224.431000,271.465271 211.801422,257.854279 211.887573,241.698700 
	C211.972458,225.782867 224.558289,212.188141 240.250824,212.010925 
	C267.547791,211.702637 294.850616,211.913986 322.620026,212.002960 
z"/>
<path fill="#FAE29F" opacity="1.000000" stroke="none" 
	d="
M487.227600,340.272522 
	C482.338470,342.654388 477.781555,346.459198 473.083282,346.642578 
	C454.676880,347.361023 436.225830,346.936340 417.311188,346.936340 
	C424.372986,326.991272 424.489227,307.123352 416.980988,287.146423 
	C435.046417,287.146423 452.693726,286.519592 470.271332,287.356720 
	C482.956116,287.960815 492.011200,295.269470 496.203735,307.468323 
	C500.545715,320.102081 497.136658,330.978302 487.227600,340.272522 
z"/>
<path fill="#F8D070" opacity="1.000000" stroke="none" 
	d="
M225.000275,347.334015 
	C216.451553,346.578979 208.217484,346.627899 200.409180,344.828827 
	C193.457169,343.227081 193.658646,342.263245 195.333679,335.443176 
	C198.577087,322.237396 195.929596,310.083496 188.427078,298.503448 
	C193.761765,291.481750 200.998932,287.494537 209.590820,287.275818 
	C227.037308,286.831635 244.503052,287.143066 262.578461,287.143066 
	C255.259506,307.166901 255.144791,327.018219 262.623657,347.334015 
	C249.738037,347.334015 237.619095,347.334015 225.000275,347.334015 
z"/>
<path fill="#D67A40" opacity="1.000000" stroke="none" 
	d="
M372.104919,384.396606 
	C366.118378,386.908752 360.115509,389.004944 353.725616,391.117798 
	C351.931946,386.404358 348.646332,384.516357 343.405640,384.476624 
	C340.960571,379.392761 338.983826,374.709686 337.455078,369.976593 
	C378.828217,369.866425 405.067841,329.191681 386.713165,293.574860 
	C376.058044,272.898834 358.210876,263.719391 335.037537,264.361938 
	C336.684631,259.284576 338.347809,254.590546 340.010986,249.896515 
	C363.542908,249.484009 381.839966,259.672607 395.240082,278.418793 
	C417.393616,309.410736 409.362671,351.873047 377.637512,373.439392 
	C373.752869,376.080139 370.844818,378.831879 372.104919,384.396606 
z"/>
<path fill="#AC5E2C" opacity="1.000000" stroke="none" 
	d="
M339.703247,249.700867 
	C338.347809,254.590546 336.684631,259.284576 334.627136,264.461792 
	C302.591370,268.253113 281.068115,298.899475 288.750122,329.706543 
	C294.377380,352.273590 311.691864,366.740295 337.007080,370.026581 
	C338.983826,374.709686 340.960571,379.392761 343.000732,384.418091 
	C310.134735,387.322266 278.096100,361.920837 273.049347,329.249969 
	C267.167297,291.172150 290.358673,257.889801 328.020081,250.533310 
	C331.737030,249.807266 335.600220,249.830017 339.703247,249.700867 
z"/>
<path fill="#FDE9CC" opacity="1.000000" stroke="none" 
	d="
M116.972473,395.093048 
	C120.104790,382.665588 125.161568,372.306671 130.676773,366.141754 
	C137.921539,367.459412 144.715500,368.602600 151.454193,370.010376 
	C152.599213,370.249573 154.000320,371.419128 154.451996,372.504700 
	C164.862549,397.526581 161.799103,421.541809 139.668564,440.016907 
	C134.535568,444.302063 130.526962,443.843567 126.707687,438.436035 
	C117.557152,425.480316 113.756073,411.290222 116.972473,395.093048 
z"/>
<path fill="#FCD79F" opacity="1.000000" stroke="none" 
	d="
M80.063934,342.274200 
	C61.131546,343.760895 46.124527,336.163727 34.055805,322.109772 
	C31.051483,318.611298 31.611526,314.470398 35.293655,311.536865 
	C38.397942,309.063690 41.814606,306.940735 45.254009,304.939484 
	C51.047337,301.568542 51.815472,300.304474 51.000946,293.004456 
	C57.405712,291.985443 63.852684,290.959717 71.142929,289.799805 
	C70.950157,298.049530 77.079376,298.535583 82.997375,300.406342 
	C90.040421,302.632751 96.581413,306.450317 103.334076,309.591064 
	C106.899368,311.249359 108.894257,313.576569 107.064148,317.779510 
	C106.620956,318.797333 106.781975,320.078247 106.090988,321.590210 
	C94.781151,325.901154 86.972343,333.524078 80.063934,342.274200 
z"/>
<path fill="#D77B40" opacity="1.000000" stroke="none" 
	d="
M179.858124,315.041565 
	C184.276550,327.020905 180.315674,340.536591 170.029572,348.579620 
	C159.795959,356.581573 145.415070,357.017761 134.571793,349.654938 
	C123.504402,342.139923 118.974503,328.615601 123.676773,315.014648 
	C133.147003,313.836914 142.003738,312.134766 150.844757,312.212891 
	C160.523453,312.298401 170.187622,314.028320 179.858124,315.041565 
z"/>
<path fill="#AD5F2D" opacity="1.000000" stroke="none" 
	d="
M345.997955,121.336227 
	C336.238831,121.336487 326.979065,121.336487 317.425323,121.336487 
	C317.425323,111.133049 317.425323,101.551956 317.425323,91.371231 
	C332.055542,91.371231 346.735168,91.371231 362.323608,91.371231 
	C362.323608,98.294243 362.382263,105.527084 362.309265,112.758591 
	C362.210205,122.577621 363.635986,121.194572 353.977509,121.330498 
	C351.484589,121.365585 348.990723,121.335899 345.997955,121.336227 
z"/>
<path fill="#D67A40" opacity="1.000000" stroke="none" 
	d="
M70.111008,357.520264 
	C73.094521,358.306091 76.397240,358.521088 79.004868,359.979156 
	C88.937492,365.533112 95.545937,374.031494 100.106293,384.429901 
	C102.630760,390.186157 101.494728,395.767181 101.094063,401.544922 
	C100.384193,411.781494 100.541008,411.796722 90.384964,414.043762 
	C88.942062,414.362976 87.484230,414.614655 85.486015,415.004303 
	C85.093384,398.163483 77.337112,385.456696 64.123451,375.011871 
	C65.997444,368.733490 68.054230,363.126862 70.111008,357.520264 
z"/>
<path fill="#AD5F2D" opacity="1.000000" stroke="none" 
	d="
M179.841217,314.685028 
	C170.187622,314.028320 160.523453,312.298401 150.844757,312.212891 
	C142.003738,312.134766 133.147003,313.836914 123.866119,314.686951 
	C127.663330,302.847168 137.890656,295.207977 149.964554,294.803436 
	C163.843384,294.338409 174.155304,301.081299 179.841217,314.685028 
z"/>
<path fill="#F6CE70" opacity="1.000000" stroke="none" 
	d="
M56.839787,413.545166 
	C54.583431,413.020142 52.305756,412.571991 50.075382,411.953339 
	C46.093884,410.848907 43.888420,408.287750 43.892414,404.029510 
	C43.898586,397.448334 43.894039,390.867126 43.894039,383.875092 
	C51.091763,384.355804 55.583290,387.535736 59.641262,391.928558 
	C58.612160,399.537659 57.725971,406.541412 56.839787,413.545166 
z"/>
<path fill="#FCE8CB" opacity="1.000000" stroke="none" 
	d="
M80.505539,342.353394 
	C86.972343,333.524078 94.781151,325.901154 105.910767,321.916138 
	C106.636429,326.341248 106.968140,330.792480 107.333038,335.689026 
	C99.158646,339.528259 90.268677,341.775848 80.505539,342.353394 
z"/>
<path fill="#AB5E2C" opacity="1.000000" stroke="none" 
	d="
M69.697266,357.371185 
	C68.054230,363.126862 65.997444,368.733490 63.923737,374.748016 
	C59.142216,372.971832 54.377613,370.787750 48.839893,368.249268 
	C50.907650,364.501495 52.917625,360.436096 55.392334,356.676605 
	C55.994476,355.761841 58.165615,355.431396 59.543926,355.565613 
	C62.813225,355.883972 66.039719,356.641907 69.697266,357.371185 
z"/>
<path fill="#F3DB9A" opacity="1.000000" stroke="none" 
	d="
M104.062515,361.981903 
	C101.966705,359.617035 100.087143,357.534607 97.981789,355.202026 
	C102.779770,353.460999 107.290588,351.073181 112.034477,350.444794 
	C114.154579,350.163910 116.742714,353.416199 119.301636,355.192169 
	C116.029846,360.466736 113.189529,365.045715 110.052094,370.103699 
	C108.060524,367.399414 106.169647,364.831879 104.062515,361.981903 
z"/>
<path fill="#F7DE9C" opacity="1.000000" stroke="none" 
	d="
M57.171021,413.711731 
	C57.725971,406.541412 58.612160,399.537659 59.772636,392.240082 
	C66.776245,398.218079 70.617058,405.694885 70.106247,415.726440 
	C65.605980,415.066559 61.554119,414.472412 57.171021,413.711731 
z"/>
<path fill="#030201" opacity="1.000000" stroke="none" 
	d="
M337.455078,369.976593 
	C311.691864,366.740295 294.377380,352.273590 288.750122,329.706543 
	C281.068115,298.899475 302.591370,268.253113 334.643250,264.845062 
	C358.210876,263.719391 376.058044,272.898834 386.713165,293.574860 
	C405.067841,329.191681 378.828217,369.866425 337.455078,369.976593 
M327.203369,281.923218 
	C311.515717,287.446625 301.058472,303.082336 302.148743,319.385040 
	C303.236816,335.654816 314.878723,349.839600 330.542450,353.661255 
	C352.859100,360.261963 380.300232,341.930206 377.122620,312.336578 
	C374.661530,289.416443 349.313049,273.534973 327.203369,281.923218 
z"/>
<path fill="#AE602D" opacity="1.000000" stroke="none" 
	d="
M327.944275,281.872528 
	C349.313049,273.534973 374.661530,289.416443 377.122620,312.336578 
	C380.300232,341.930206 352.859100,360.261963 330.242035,353.023254 
	C329.102264,348.852539 327.845581,345.359894 327.501831,341.779602 
	C326.467651,331.008118 325.138611,320.200592 325.170837,309.410828 
	C325.198273,300.228729 326.953461,291.051758 327.944275,281.872528 
z"/>
<path fill="#9E5323" opacity="1.000000" stroke="none" 
	d="
M327.573822,281.897888 
	C326.953461,291.051758 325.198273,300.228729 325.170837,309.410828 
	C325.138611,320.200592 326.467651,331.008118 327.501831,341.779602 
	C327.845581,345.359894 329.102264,348.852539 329.924744,352.796356 
	C314.878723,349.839600 303.236816,335.654816 302.148743,319.385040 
	C301.058472,303.082336 311.515717,287.446625 327.573822,281.897888 
z"/>
</svg>